<?xml version="1.0" encoding="UTF-8"?>
<svg id="Layer_2" data-name="Layer 2" xmlns="http://www.w3.org/2000/svg" viewBox="0 0 347.97 355.26">
  <defs>
    <style>
      .cls-1 {
        fill: #fff;
      }
    </style>
  </defs>
  <g id="Layer_1-2" data-name="Layer 1">
    <path d="M15.99,31.9c8.69-11.51,22.86-22.06,36.53-26.79C70.85-1.23,93.83.68,113.16.65c8.06-.01,16.13.05,24.18.02-3.01,11.01,17.84,12.7,17.31,1.86-.23-.93-2.6-.22-2.05-1.86,9.09.1,18.13-.57,27.23-.54,1.56,0,2.96.55,4.53.56,26.92.09,56.36-1.6,82.92-.02,38.97,2.32,70.45,36.53,72.5,74.99,1.1,20.66-.89,42.29.01,63.06.6,3.83,7.58,2.96,8.13,9.67.32,3.92-1.24,6.63-4.35,8.93-1.38,1.02-4.64,1.83-4.86,3.32.33,3.53.96,7.66,1.07,11.15,1.06,33.68.14,68.42.51,102.23.45,41.21-29.25,75.9-70.44,80.15-62.83-1.78-126.54,2.61-189.25.51-44.22-1.48-74.28-26.72-80.61-70.96L.02,74.68c1.41-15.4,6.65-30.43,15.97-42.78ZM124.62,10.34c4.5,19.38,39.61,21.36,47.24,3.75.54-1.24,2.01-4.03.22-4.67-1.54-.55-5.96-1.45-7.42-1.01-.9.27-3.62,4.15-4.93,5.24-7.32,6.08-17.61,6.05-25.61,1.18-3.18-1.94-4.79-6.11-9.5-4.49ZM59.52,44.67v11.95c4.49-2.16,8.65-2.91,13.66-2.61,4.65-17.81,15.11-33.02,31.09-42.4.21-1.15-.5-.7-1.26-.76-8.87-.64-22.67-.62-31.56-.02-32.11,2.16-59.83,31.47-61.8,63.32v208.06c1.53,14.27,7.03,28.4,16.8,38.89l.66-28.61c.05-3,2.43-1.93,4.31-2.79,2.37-1.08.66-5.48.61-7.48-.33-14.8-1.25-38.49,2.71-52.26,7.53-26.19,29.97-38.46,53.08-49.15,3.62-1.68,10.57-3.36,13.38-5.44,1.84-1.36,2.63-3.98,4.6-5.58.96-.78,3.53-1.78,3.83-2.27.55-.91.48-3.43-.26-4.33s-8.49-4.82-10.53-6.25c-7.41-5.19-15.28-13.64-19.56-21.64-2.25-4.22-3.45-8.97-5.83-12.99-4.71-.69-10.22-.2-13.91-3.63l-.43,7.3c2.53,1.89,5.1,3.3,6.26,6.45,5.15,13.98-15.11,22.49-20.32,8.62-2.1-5.58.46-12.99,6.38-14.54l-.04-16.98c-4.45.93-9.98-3.65-10.64-7.91-.5-3.2.69-7.13-.51-10.17-1.67-1.16-12.73,2.82-11.45-4.35.9-5.02,7.68-3.99,11.42-4.52-.59-8.39,1.05-16.01,10.7-17.02l.51-21.35c-7.1-1.74-8.98-9.42-5.32-15.5,7.32-12.18,24.49-1.21,18.89,10.75-1.23,2.62-3.1,3.77-5.46,5.22ZM297.55,111.29v26.19c10.77-.09,21.56-1.3,32.26.53,1.16-.1.83-13.36.82-15.05-.03-4.62-.53-9.55-.55-14.2-.06-13.7,2.17-31.74-1.24-44.53-7.5-28.14-31.64-51.53-61.52-53.42l-73.01.28c9.29,6.29,17.9,13.96,23.49,23.82,3.15,5.56,5.71,11.54,7.13,17.79l.73.8c4.44.15,8.97.98,12.9,3.12l-.06-11.88c-2.68-1.5-4.78-2.61-6.12-5.57-5.55-12.24,11.01-22.1,18.62-11.5,4.53,6.31,2.18,12.91-4.03,16.75l-.26,20.85c8.01.66,11.64,4.42,11.72,12.48.07,7.08.26,17.44-.53,24.39-.58,5.1-6.6,7.54-11.17,7.91l-.45,16.68c4.65,1.76,7.2,6.89,6.53,11.78,11.83-2.21,23.68-.92,35.6-1.02l-.21-26.46c-7.95-9.46-16.24-20.17-22.7-30.74-1.23-2.01-5.32-7.96-3.31-9.94,1.09-1.07,24.13-.37,27.66-1.08,1.52-11.95,12.14-18.81,23.22-12.77.75-.06,3.29-4.77,4.3-5.75,1.54-1.5,4.93-3.87,4.64.02s-6.9,6.24-6.6,8.07c.04.22,2.04,2.39,2.58,3.53,1.11,2.32,1.44,4.93,2.01,7.4l6.54.58-.24,2.56c-9.55,12.83-18.64,25.99-28.75,38.39ZM116.99,14.91c-.42-.36-7.02,3.22-8.09,3.86-8.24,4.85-16.85,11.96-20.38,21.06l121.55-.51c1.38-1.19-10.97-13.43-12.2-14.5-4.68-4.07-9.96-7.29-15.61-9.84l-.67-.07c-10.68,25.69-55.39,28.21-64.6,0ZM241.47,30.25c-6,1.07-2.12,11.68,3.2,6.81,3.07-2.81-.02-7.37-3.2-6.81ZM53.26,30.78c-3.82,1.17-1.68,9.67,3.6,7.15,4.12-1.96,1.2-8.63-3.6-7.15ZM214.06,47.55l-129.57-.56c-3.13,7.91-3.21,15.24-3.11,23.64.13,10.79.65,21.68.55,32.55-.02,2.6-.73,5.19-.55,8.14.28,4.4,1.79,8.79,3.08,12.95.78-.06,1.48-.47,2.28-.51,7.53-.35,19.76-.84,26.97-.01,5.13.59,3.89,6.49-.04,7.1l-25.65.03c3.11,9.36,13.6,18.57,22.03,23.48,27.49,16.01,70.68,12.54,92.93-11.01,1.44-1.52,9.06-10.47,7.61-11.96-3.45.5-7.13-.51-10.4-.54-4.41-.03-10.78,1.28-14.76.52-2.82-.54-4.14-5.59-1.67-6.73.88-.41,3.16-.79,4.21-.88,3.95-.35,25.4.63,26.71-.24,1.13-2.92,2.29-6.48,2.54-9.67,1.44-18.14-1.13-38.15,0-56.49l-3.15-9.82ZM307.61,66.91c1.24,1.29-.21,5.26,4.98,2.96.8-1.07-1.7-4.76-2.58-5.62-5.41-5.21-12.86-.76-12.96,6.1l5.03-.56c-.69-3.27,3.77-4.71,5.53-2.88ZM72.75,113.07v-49.59c0-.19-.52-.82-.59-1.19l-7.22.5-.76.77v47.92s8.57,1.59,8.57,1.59ZM233.98,62.72c-1.86.63-7.39-1.42-8.43-.02l.3,50.38,8.14-1.02v-49.33ZM243.13,100.87c1.43.47,6.08-1.07,6.53-2.37l.34-23.07-7.38-3.04.5,28.48ZM55.46,73.4c-.53-.52-6.38,1.21-6.87,2.03l-.25,23.55c.09.37,3.57,2.27,4.22,2.5.73.26,2.63,1.09,2.4-.35l.51-27.74ZM311.28,78.49l-36.62-.51c2.82,4.04,14.1,23.73,18.56,23.88,1.37.05,5.14-3.44,4.32-4.56-7.23,4-10.57-8.23-14.22-12.46.08-1.58,8.52-1.23,9.9-1.27,3.16-.09,5.65-.48,9.04.12,1.26.22,3.09,1.6,4.08,1.34,1.13-.29,5.4-6.05,4.94-6.54ZM301.02,89.77c-.08-.14-2.47-1.44-2.82-1.52-6.22-1.45-3.99,7.63,1.04,5.94.97-.32,2.3-3.54,1.78-4.42ZM251.27,208.69v-15.51c0-.77,2.63-1.39,3.1-1.98,1.32-1.67-.92-9.65-1.06-12.26-.31-5.97,2.17-10.85,3.33-16.53-8.59-2.02-30.89-.78-28.73-14.45.73-4.59,6.3-5.27,6.54-6.71-2.62-3.59-2.75-7.63-.18-11.35,1.05-1.52,4.55-3.43,4.72-3.93.32-.97.36-6.58-.7-6.79-4.45,2.33-8.99,3.17-14,3.28-5.18,16.22-15.62,30.22-30.46,38.71-2.53,1.45-5.15.71-5.1,4.55.06,4.44,2.48,3.84,5.25,5.94,8.06,6.12,15.3,8.42,24.26,12.87,12.88,6.41,23.9,12.68,33.05,24.17ZM53.79,133.02c-3.36.75-3.56,6.21.13,7.31,6.06,1.81,7.61-9.05-.13-7.31ZM245.01,133.57c-2.41-1.82-8.53,2.34-7.01,4.58,2.58,2.1,5.97,1.66,8.72.1.79-.67-1.11-4.22-1.71-4.68ZM273.02,145.23c-.3-.3-2.06-.58-2.62-.58-4.53.06-11.13.93-15.76,1.54-2.05.27-14.88,2.28-15.58,2.99-.65.67.1.89.64,1.13,4.73,2.1,15.15,3.5,20.47,3.94,16.27,1.36,34.48.63,50.83-.02,7.73-.31,14.81.12,22.46-1.95,1.43-.39,3.89-.68,4.29-2.35,0-1.65-4.23-2.71-5.62-3.06-2.53-.65-19.77-3.12-20.81-2.23-.31,3.21-.8,3.28-3.85,3.53-5.11.42-10.37-.54-15.25-.55-3.43,0-16.44,1.49-18.49-.08-.5-.38-.31-1.9-.73-2.33ZM227.87,294.14v49.84c19.1-1.27,40.49,3.17,58.63-3.68,24.1-9.09,42.19-32.74,44.11-58.63,1.9-25.65-.52-54.91-.53-80.89,0-5.7.45-11.52.55-17.25.13-7.22-.41-14.5.49-21.64l-3.54.03c-2.46,14.62-19.86,23.19-33.08,25.92-.64,4.51,4.18,2.98,7.4,4.04,1.24.41,2.39.73,2.29,2.29,0,13.58-.08,27.16-.05,40.74.03,14.84,1.36,33.76.01,48.29-.97,10.47-9.38,22.27-18.47,27.31-10.42,5.77-20.43,5.83-31.63,1.96-10.37-3.59-18.96-10.23-26.18-18.32ZM318.4,162.92h-8.9c-.8,0-9.81,5.2-12.35,5.96-6.44,1.93-11.76,1.26-18.07,4.82-1.84,1.04-8.21,7.04-9.41,3.1-1.47-4.84,5.83-9.33,4.94-12.03-.55-1.66-7.07-2.11-8.62-1.11-.38,2.73-3.13,5.77-3.51,8.19-.49,3.13-.16,9.28-.05,12.71.07,2.31,1.17,4.37.02,6.84l22.92-.73c1.45-4.83-1.54-6.65,4.04-9.18,7.21-3.26,25.36-8.98,28.58-16.68.27-.64.53-1.15.4-1.89ZM121.12,174.56c15.01,5.79,30.05,7.42,45.83,3.46,1.36-.34,10.26-3.08,10.79-3.45,1.57-1.1.51-4.76.8-6.57-4.77,2.13-10.01,3.49-15.16,4.42-10.64,1.93-18.47,1.78-29.1-.08-4.55-.8-9.06-1.76-13.21-3.82l.05,6.05ZM188.7,175.63l-4.61,4.28c-14.27,11.21-56.96,11.43-70.42-.7-.7-.63-2.37-3.74-3.28-3.07-4.59,9.42-1.23,21.17,6.35,27.97-.35-6.2,5.06-15.12,11.69-15.29,4.09-.11,11.02,3.05,14.32,5.58,3.68-2.44,7.05-2.84,11.27-1.62,1.03.3,3.25,1.72,3.84,1.6.36-.07,2.4-2.13,3.43-2.67,1.18-.62,4.74-1.88,6.03-2.11,8.82-1.62,16.21,5.24,14.77,14.01,1.36.38.9-.63,1.51-1.25,1.99-2.06,5.95-6.02,6.51-8.77.5-2.44.15-16.52-1.42-17.94ZM97.67,185.3l-6.16,1.32-5.3,30.21c1.92,2.08,14.37,5.95,14.97,7.97s-8.5,10.31-9.03,13.07c.25,1.27,14.35,13.52,16.46,15.57,5.94,5.75,12.35,13.49,18.54,18.58,1.25,1.03,3.01,2.34,4.58,2.79,1.94-2.24-5.11-11.04-6.62-12.95-6.86-8.65-15.14-16.14-23.34-23.48-.17-3.66,6.65-8.38,6.55-11.07-.08-2.01-3.03-6.37-4.53-7.7-1.87-1.67-8.78-4.16-9.08-6.19.79-9.4,3.4-18.63,2.95-28.11ZM207.41,187.45l-6.49-2.15,3.47,28.65c-3.74,2.12-14.16,8.85-14.55,13.39-.23,2.71,8.16,6.69,8.47,10.02l-12.92,12.01c-5.62,7.08-16.2,13.5-16,23.41,1.31.16,2.34-.81,3.29-1.54,5.24-4.03,10.6-9.91,15.52-14.49,3.1-2.89,7.03-5.57,10-8.56,1.34-1.35,8.31-9.33,8.63-10.49.62-2.24-9.48-10.06-9.49-12.49-.01-2.8,14.21-6.22,14.7-7.7l-4.62-30.06ZM137.29,202.54c1.55-2.45-6.13-5.29-8.08-4.82-5.97,1.43-5.65,17.22.29,18.07,1.58.23,7.39-1.85,8.14-3.03,1.6-2.56-4.66-3.09-5.14-3.55-1.53-1.47-.39-4.91.77-6.42l4.02-.26ZM161.75,212.75c3.16.77,9.07,5.76,11.65,1.74,1.08-1.69.84-12.96-.25-14.91-2.46-4.42-8.06-.69-11.18.97.04,4.83,6.45.13,5.93,6.37-.3,3.56-5.64,2.01-6.15,5.83ZM260.42,218.36h34.33l.76-1.27.51-17.55c-9.56-.24-19.19.32-28.76.02-1.49-.05-6.79-1.54-7.32.3l.47,18.5ZM71.73,199.54c-12.1,4.99-22.58,15.25-26.96,27.71-1.92,5.46-2.59,11.1-3.54,16.8v45.52s30-.51,30-.51l.5-89.51ZM150.33,200.26c-7.26-.57-8.15,13.42.97,11.96,5.54-.89,4.17-11.56-.97-11.96ZM261.39,277.3c-5.45,1.4-8.14,2.07-8.96-4.42-1.87-14.82.67-31.03-.63-45.65-.6-6.74-10.91-17.3-16.06-21.58-.69-.57-7.58-6-7.86-5.61-.23,20.42.28,40.88.02,61.31-.1,8.21-2.32,12.76,2.3,20.53,16.01,26.94,56.3,37.77,64.8-.22l.52-54.16-35.1-.51.97,50.3ZM151.51,282.35c8.86-13.81,18.07-28.28,25.43-42.96,3.2-6.38,5.35-12.41,7.96-18.99,1.78-4.48,4.94-8.81,4.82-13.74-1.79,1.09-2.95,3.06-4.59,4.3-.82.62-2.3.66-2.77,1.29-.65.88-.93,4.91-1.85,6.8-4.53,9.29-18.04,6-23.64-.23-3.28,1.61-5.68,2.63-9.49,1.95-1.26-.22-3.11-1.59-4.08-1.34-.61.16-1.61,1.55-2.55,2.07-6.68,3.72-14.75,5.83-20.18-.87-3.91-4.83-2.45-7.14-8.63-11.71-.7-.51-1.03-.95-2.06-.74,9.45,26.57,22.62,52.08,40.26,74.15h1.37ZM153.46,297.35c-5.32-4.7-13.15,4.44-6.3,8.08s10.69-4.2,6.3-8.08ZM71.73,297.7h-34.33c-.26,0-1.07-.8-1.78-.51v16.78l35.63.28c.95-.61-.02-2.44-.05-3.56-.11-4.37.16-8.66.53-12.99ZM118.52,303.29h-26.7c-1.53,1.62-.47,4.5-.77,6.61,3.98.05,7.99-.06,11.98-.02,1.22.01,2.36.57,3.54.57,3.7,0,8.03-1.11,11.95-.55v-6.61ZM208.54,303.29h-27.21c-1.53,1.62-.47,4.5-.76,6.61h27.97v-6.61ZM153.46,328.05c3.85-3.52-.54-12.52-6.43-8.72-6.52,4.2.83,13.83,6.43,8.72ZM32.06,322.11l-5.09-.5,4.33,5.08c1.43.6.51-4,.76-4.57ZM71.22,343.98v-21.11l-30.01-.77c.89,3.54-1.92,9.98.54,12.44,1.61,1.61,9.1,4.85,11.53,5.76,5.59,2.08,11.92,3.67,17.94,3.68Z"/>
    <path class="cls-1" d="M59.52,44.67c2.36-1.45,4.23-2.6,5.46-5.22,5.6-11.96-11.57-22.93-18.89-10.75-3.66,6.08-1.78,13.77,5.32,15.5l-.51,21.35c-9.65,1.01-11.29,8.62-10.7,17.02-3.75.53-10.53-.51-11.42,4.52-1.28,7.17,9.78,3.19,11.45,4.35,1.2,3.04,0,6.98.51,10.17.67,4.26,6.2,8.84,10.64,7.91l.04,16.98c-5.93,1.55-8.48,8.97-6.38,14.54,5.21,13.86,25.47,5.35,20.32-8.62-1.16-3.15-3.73-4.56-6.26-6.45l.43-7.3c3.69,3.43,9.2,2.95,13.91,3.63,2.38,4.01,3.58,8.77,5.83,12.99,4.27,8,12.15,16.45,19.56,21.64,2.04,1.43,9.78,5.34,10.53,6.25s.82,3.41.26,4.33c-.3.49-2.87,1.49-3.83,2.27-1.96,1.59-2.76,4.22-4.6,5.58-2.81,2.08-9.76,3.77-13.38,5.44-23.11,10.69-45.54,22.97-53.08,49.15-3.96,13.77-3.04,37.46-2.71,52.26.05,2,1.76,6.4-.61,7.48-1.88.86-4.27-.21-4.31,2.79l-.66,28.61c-9.78-10.49-15.27-24.62-16.8-38.89V74.14c1.96-31.85,29.69-61.15,61.79-63.32,8.89-.6,22.69-.62,31.56.02.76.05,1.47-.39,1.26.76-15.98,9.39-26.44,24.59-31.09,42.4-5.01-.29-9.17.46-13.66,2.61v-11.95Z"/>
    <path class="cls-1" d="M214.06,47.55l3.15,9.82c-1.13,18.34,1.44,38.35,0,56.49-.25,3.18-1.41,6.75-2.54,9.67-1.32.87-22.77-.11-26.71.24-1.04.09-3.33.47-4.21.88-2.48,1.14-1.15,6.19,1.67,6.73,3.98.76,10.35-.56,14.76-.52,3.27.03,6.95,1.03,10.4.54,1.46,1.48-6.17,10.44-7.61,11.96-22.25,23.55-65.44,27.03-92.93,11.01-8.43-4.91-18.92-14.12-22.03-23.48l25.65-.03c3.93-.62,5.17-6.51.04-7.1-7.21-.83-19.44-.34-26.97.01-.79.04-1.5.45-2.28.51-1.29-4.16-2.81-8.55-3.08-12.95-.18-2.95.53-5.54.55-8.14.1-10.87-.42-21.76-.55-32.55-.1-8.39-.02-15.72,3.11-23.64l129.57.56ZM115.36,60.33c-21.61,1.85-30.14,30.43-12.35,43.59,15.7,11.61,36.94.02,38.33-18.63,1.04-13.94-12.28-26.13-25.98-24.96ZM166,102.21c9.07,8.3,25.82,8.02,33.88-1.61,17.86-21.34-5.76-51-30.01-36.62-13.35,7.92-15.18,27.89-3.87,38.24ZM135.49,129.17c8.12,7.67,23.42,6.77,30.86-1.59,2.19-2.46,5.36-8.16.52-9.7-4.79-1.53-5.15,2.95-7.64,5.13-4.27,3.75-13.2,3.96-17.48.16-2.66-2.36-2.21-6.52-7.09-5.41-5.7,1.3-1.97,8.77.83,11.41Z"/>
    <path class="cls-1" d="M227.87,294.14c7.22,8.09,15.82,14.73,26.18,18.32,11.19,3.88,21.2,3.81,31.63-1.96,9.09-5.03,17.5-16.84,18.47-27.31,1.34-14.53.01-33.45-.01-48.29-.03-13.58.04-27.16.05-40.74.1-1.55-1.05-1.88-2.29-2.29-3.23-1.06-8.05.46-7.4-4.04,13.22-2.73,30.62-11.3,33.08-25.92l3.54-.03c-.9,7.14-.36,14.42-.49,21.64-.1,5.72-.55,11.55-.55,17.25,0,25.97,2.42,55.24.53,80.89-1.91,25.89-20.01,49.54-44.11,58.63-18.14,6.84-39.53,2.41-58.63,3.68v-49.84Z"/>
    <path class="cls-1" d="M297.55,111.29c10.11-12.39,19.2-25.55,28.75-38.39l.24-2.56-6.54-.58c-.56-2.47-.9-5.08-2.01-7.4-.55-1.14-2.55-3.32-2.58-3.53-.3-1.82,6.31-4.21,6.6-8.07s-3.1-1.52-4.64-.02c-1.01.98-3.54,5.69-4.3,5.75-11.07-6.04-21.7.81-23.22,12.77-3.53.71-26.57,0-27.66,1.08-2.01,1.98,2.08,7.93,3.31,9.94,6.45,10.58,14.75,21.28,22.7,30.74l.21,26.46c-11.92.1-23.78-1.19-35.6,1.02.67-4.89-1.89-10.01-6.53-11.78l.45-16.68c4.57-.37,10.58-2.8,11.17-7.91.79-6.95.6-17.31.53-24.39-.08-8.07-3.72-11.83-11.72-12.48l.26-20.85c6.22-3.85,8.56-10.44,4.03-16.75-7.61-10.6-24.17-.74-18.62,11.5,1.35,2.97,3.44,4.08,6.12,5.57l.06,11.88c-3.93-2.14-8.46-2.97-12.9-3.12l-.73-.8c-1.42-6.25-3.98-12.23-7.13-17.79-5.59-9.86-14.2-17.53-23.49-23.82l73.01-.28c29.89,1.89,54.02,25.29,61.52,53.42,3.41,12.8,1.18,30.83,1.24,44.53.02,4.64.52,9.58.55,14.2.01,1.69.34,14.95-.82,15.05-10.7-1.83-21.49-.62-32.26-.53v-26.19Z"/>
    <path class="cls-1" d="M261.39,277.3l-.97-50.3,35.1.51-.52,54.16c-8.49,37.99-48.79,27.16-64.8.22-4.62-7.78-2.41-12.32-2.3-20.53.26-20.43-.25-40.89-.02-61.31.29-.39,7.18,5.04,7.86,5.61,5.15,4.28,15.45,14.84,16.06,21.58,1.31,14.63-1.24,30.84.63,45.65.82,6.48,3.51,5.82,8.96,4.42ZM276.55,236.77c-3.73,1.12-3.87,7.07.12,8.31,8.43,2.63,8.53-10.91-.12-8.31ZM277.59,252.02c-7.19,1.37-3,12.77,3.13,9.26,4.7-2.68,1.92-10.23-3.13-9.26Z"/>
    <path class="cls-1" d="M251.27,208.69c-9.15-11.49-20.17-17.76-33.05-24.17-8.95-4.45-16.19-6.75-24.26-12.87-2.77-2.1-5.19-1.5-5.25-5.94-.05-3.84,2.57-3.11,5.1-4.55,14.84-8.49,25.28-22.48,30.46-38.71,5.01-.11,9.55-.95,14-3.28,1.06.21,1.02,5.81.7,6.79-.16.5-3.66,2.4-4.72,3.93-2.57,3.72-2.44,7.75.18,11.35-.24,1.44-5.81,2.12-6.54,6.71-2.16,13.68,20.14,12.44,28.73,14.45-1.16,5.69-3.64,10.56-3.33,16.53.14,2.61,2.37,10.59,1.06,12.26-.47.59-3.1,1.21-3.1,1.98v15.51Z"/>
    <path class="cls-1" d="M71.73,199.54l-.5,89.51-30.01.51v-45.52c.97-5.7,1.63-11.34,3.55-16.8,4.38-12.46,14.86-22.71,26.96-27.71Z"/>
    <path class="cls-1" d="M151.51,282.35h-1.37c-17.64-22.08-30.8-47.59-40.26-74.16,1.02-.22,1.36.22,2.06.74,6.18,4.57,4.72,6.88,8.63,11.71,5.43,6.7,13.49,4.6,20.18.87.94-.52,1.94-1.91,2.55-2.07.98-.25,2.82,1.12,4.08,1.34,3.81.68,6.21-.34,9.49-1.95,5.6,6.24,19.11,9.52,23.64.23.92-1.89,1.2-5.92,1.85-6.8.47-.64,1.95-.67,2.77-1.29,1.65-1.24,2.8-3.21,4.59-4.3.12,4.93-3.04,9.25-4.82,13.74-2.62,6.58-4.76,12.61-7.96,18.99-7.36,14.68-16.57,29.15-25.43,42.96ZM149.41,223.54c-5.56,1.22-3.99,11.36,2.32,9.97,5.51-1.21,4.25-11.42-2.32-9.97ZM149.92,239.8c-6.11.88-4.97,10.92,1.9,9.56,5.35-1.05,3.33-10.32-1.9-9.56ZM153.46,266.01c5.02-4.47-3.24-12.19-6.89-6.64-3.28,4.98,3.05,10.06,6.89,6.64Z"/>
    <path class="cls-1" d="M116.99,14.91c9.22,28.21,53.92,25.69,64.6,0l.67.07c5.64,2.55,10.93,5.77,15.61,9.84,1.22,1.07,13.57,13.31,12.2,14.5l-121.55.51c3.53-9.1,12.15-16.21,20.38-21.06,1.08-.63,7.67-4.22,8.09-3.86Z"/>
    <path class="cls-1" d="M318.4,162.92c.13.74-.13,1.25-.4,1.89-3.22,7.71-21.37,13.42-28.58,16.68-5.59,2.53-2.59,4.34-4.04,9.18l-22.92.73c1.15-2.47.05-4.53-.02-6.84-.1-3.42-.44-9.57.05-12.71.38-2.42,3.13-5.46,3.51-8.19,1.56-1,8.08-.55,8.62,1.11.89,2.7-6.41,7.2-4.94,12.03,1.2,3.94,7.57-2.07,9.41-3.1,6.31-3.56,11.63-2.9,18.07-4.82,2.54-.76,11.56-5.96,12.35-5.96h8.9Z"/>
    <path class="cls-1" d="M97.67,185.3c.45,9.48-2.16,18.72-2.95,28.11.3,2.03,7.21,4.53,9.08,6.19,1.5,1.34,4.46,5.7,4.53,7.7.1,2.7-6.72,7.41-6.55,11.07,8.19,7.34,16.47,14.82,23.34,23.48,1.51,1.91,8.56,10.71,6.62,12.95-1.57-.45-3.33-1.76-4.58-2.79-6.19-5.09-12.61-12.83-18.54-18.58-2.12-2.05-16.22-14.3-16.46-15.57.53-2.75,9.64-11.01,9.03-13.07s-13.05-5.89-14.97-7.97l5.3-30.21,6.16-1.32Z"/>
    <path class="cls-1" d="M207.41,187.45l4.62,30.06c-.49,1.48-14.71,4.89-14.7,7.7,0,2.43,10.11,10.25,9.49,12.49-.32,1.16-7.29,9.14-8.63,10.49-2.97,2.99-6.9,5.68-10,8.56-4.92,4.58-10.28,10.46-15.52,14.49-.95.73-1.97,1.7-3.29,1.54-.2-9.91,10.39-16.32,16-23.41l12.92-12.01c-.31-3.33-8.7-7.31-8.47-10.02.39-4.54,10.81-11.27,14.55-13.39l-3.47-28.65,6.49,2.15Z"/>
    <path class="cls-1" d="M188.7,175.63c1.57,1.42,1.91,15.5,1.42,17.94-.56,2.75-4.52,6.71-6.51,8.77-.61.63-.15,1.64-1.51,1.25,1.43-8.77-5.96-15.62-14.77-14.01-1.29.24-4.84,1.5-6.03,2.11-1.03.53-3.06,2.6-3.43,2.67-.59.12-2.82-1.31-3.84-1.6-4.21-1.21-7.59-.81-11.27,1.62-3.3-2.53-10.23-5.68-14.32-5.58-6.63.17-12.04,9.09-11.69,15.29-7.59-6.8-10.94-18.55-6.35-27.97.9-.66,2.57,2.44,3.28,3.07,13.46,12.12,56.15,11.91,70.42.7l4.61-4.28Z"/>
    <path class="cls-1" d="M273.02,145.23c.42.42.23,1.94.73,2.33,2.05,1.57,15.05.07,18.49.08,4.88,0,10.14.97,15.25.55,3.05-.25,3.54-.32,3.85-3.53,1.03-.89,18.28,1.59,20.81,2.23,1.38.35,5.63,1.41,5.62,3.06-.4,1.67-2.86,1.96-4.29,2.35-7.65,2.07-14.74,1.64-22.46,1.95-16.35.65-34.57,1.38-50.83.02-5.32-.44-15.74-1.84-20.47-3.94-.54-.24-1.29-.46-.64-1.13.7-.72,13.53-2.73,15.58-2.99,4.63-.6,11.22-1.48,15.76-1.54.56,0,2.33.27,2.62.58Z"/>
    <path class="cls-1" d="M71.73,297.7c-.37,4.33-.65,8.62-.53,12.99.03,1.12.99,2.95.05,3.56l-35.63-.28v-16.78c.71-.29,1.52.51,1.78.51h34.33Z"/>
    <path class="cls-1" d="M260.42,218.36l-.47-18.5c.53-1.84,5.82-.34,7.32-.3,9.57.29,19.2-.26,28.76-.02l-.51,17.55-.76,1.27h-34.33ZM286.18,203.26c-4.84.31-7.1,8.99-.34,10.79,3.17.84,6.38-3.25,6.11-6.07-.25-2.59-3.26-4.88-5.78-4.72Z"/>
    <path class="cls-1" d="M71.22,343.98c-6.02,0-12.35-1.6-17.94-3.68-2.43-.91-9.93-4.15-11.53-5.76-2.45-2.45.36-8.89-.54-12.44l30.01.77v21.11Z"/>
    <path class="cls-1" d="M72.75,113.07l-8.58-1.59v-47.92s.77-.77.77-.77l7.22-.5c.07.37.59,1.01.59,1.19v49.59Z"/>
    <path class="cls-1" d="M124.62,10.34c4.71-1.62,6.32,2.55,9.5,4.49,7.99,4.87,18.29,4.89,25.61-1.18,1.31-1.09,4.03-4.97,4.93-5.24,1.47-.44,5.88.46,7.42,1.01,1.79.64.32,3.43-.22,4.67-7.62,17.61-42.74,15.64-47.24-3.75Z"/>
    <path class="cls-1" d="M233.98,62.72v49.33l-8.14,1.02-.3-50.38c1.04-1.39,6.58.66,8.43.02Z"/>
    <path class="cls-1" d="M121.12,174.56l-.05-6.05c4.15,2.06,8.66,3.03,13.21,3.82,10.62,1.86,18.46,2.01,29.1.08,5.15-.93,10.39-2.29,15.16-4.42-.28,1.81.77,5.47-.8,6.57-.53.37-9.43,3.11-10.79,3.45-15.78,3.96-30.82,2.33-45.83-3.46Z"/>
    <path class="cls-1" d="M311.28,78.49c.46.5-3.81,6.25-4.94,6.54-.99.25-2.82-1.12-4.08-1.34-3.4-.6-5.89-.21-9.04-.12-1.38.04-9.82-.3-9.9,1.27,3.66,4.24,7,16.46,14.22,12.46.81,1.11-2.95,4.6-4.32,4.56-4.46-.15-15.74-19.84-18.56-23.88l36.62.51Z"/>
    <path class="cls-1" d="M243.13,100.87l-.5-28.48,7.38,3.04-.34,23.07c-.45,1.3-5.1,2.85-6.53,2.37Z"/>
    <path class="cls-1" d="M208.54,303.29v6.61h-27.97c.29-2.11-.76-5,.76-6.61h27.21Z"/>
    <path class="cls-1" d="M118.52,303.29v6.61c-3.92-.56-8.25.55-11.95.55-1.18,0-2.32-.56-3.54-.57-3.99-.04-7.99.07-11.98.02.3-2.11-.76-5,.77-6.61h26.7Z"/>
    <path class="cls-1" d="M55.46,73.4l-.51,27.74c.23,1.44-1.67.61-2.4.35-.65-.23-4.13-2.13-4.22-2.5l.25-23.55c.49-.82,6.35-2.54,6.87-2.03Z"/>
    <path class="cls-1" d="M161.75,212.75c.51-3.82,5.85-2.27,6.15-5.83.52-6.24-5.89-1.53-5.93-6.37,3.12-1.66,8.73-5.39,11.18-.97,1.08,1.95,1.33,13.22.25,14.91-2.58,4.02-8.49-.97-11.65-1.74Z"/>
    <path class="cls-1" d="M137.29,202.54l-4.02.26c-1.16,1.51-2.3,4.95-.77,6.42.47.45,6.74.99,5.14,3.55-.74,1.18-6.55,3.26-8.14,3.03-5.94-.85-6.26-16.64-.29-18.07,1.95-.47,9.63,2.38,8.08,4.82Z"/>
    <path class="cls-1" d="M150.33,200.26c5.13.4,6.51,11.07.97,11.96-9.11,1.46-8.23-12.53-.97-11.96Z"/>
    <path class="cls-1" d="M153.46,328.05c-5.6,5.12-12.95-4.52-6.43-8.72,5.9-3.8,10.28,5.2,6.43,8.72Z"/>
    <path class="cls-1" d="M153.46,297.35c4.39,3.87.24,11.54-6.3,8.08s.98-12.77,6.3-8.08Z"/>
    <path class="cls-1" d="M307.61,66.91c-1.76-1.83-6.22-.39-5.53,2.88l-5.03.56c.1-6.86,7.55-11.3,12.96-6.1.89.86,3.38,4.55,2.58,5.62-5.19,2.29-3.74-1.67-4.98-2.96Z"/>
    <path class="cls-1" d="M53.79,133.02c7.73-1.74,6.19,9.12.13,7.31-3.69-1.1-3.49-6.56-.13-7.31Z"/>
    <path class="cls-1" d="M241.47,30.25c3.18-.57,6.28,4,3.2,6.81-5.33,4.87-9.2-5.74-3.2-6.81Z"/>
    <path class="cls-1" d="M53.26,30.78c4.8-1.48,7.71,5.2,3.6,7.15-5.28,2.51-7.42-5.98-3.6-7.15Z"/>
    <path class="cls-1" d="M245.01,133.57c.6.45,2.5,4.01,1.71,4.68-2.75,1.56-6.14,2-8.72-.1-1.52-2.24,4.6-6.4,7.01-4.58Z"/>
    <path class="cls-1" d="M301.02,89.77c.52.89-.81,4.1-1.78,4.42-5.03,1.69-7.26-7.39-1.04-5.94.35.08,2.74,1.38,2.82,1.52Z"/>
    <path class="cls-1" d="M32.06,322.11c-.25.58.67,5.17-.76,4.57l-4.33-5.08,5.09.5Z"/>
    <path d="M115.36,60.33c13.7-1.17,27.02,11.02,25.98,24.96-1.39,18.64-22.63,30.24-38.33,18.63-17.78-13.15-9.25-41.74,12.35-43.59ZM113.81,68.95c-14.8,2.3-16.76,25.58-.88,30.64,22.97,7.32,27.94-34.86.88-30.64Z"/>
    <path d="M166,102.21c-11.31-10.35-9.48-30.32,3.87-38.24,24.25-14.38,47.87,15.28,30.01,36.62-8.06,9.63-24.82,9.91-33.88,1.61ZM178.4,68.95c-16.23,3-14.83,29.74,2.49,31.36,22.41,2.1,22.37-35.96-2.49-31.36Z"/>
    <path d="M135.49,129.17c-2.8-2.64-6.53-10.11-.83-11.41,4.88-1.12,4.43,3.05,7.09,5.41,4.28,3.8,13.21,3.59,17.48-.16,2.49-2.18,2.85-6.66,7.64-5.13,4.84,1.55,1.67,7.24-.52,9.7-7.43,8.36-22.73,9.26-30.86,1.59Z"/>
    <path d="M277.59,252.02c5.06-.97,7.83,6.58,3.13,9.26-6.13,3.5-10.32-7.89-3.13-9.26Z"/>
    <path d="M276.55,236.77c8.65-2.6,8.56,10.94.12,8.31-3.99-1.24-3.85-7.19-.12-8.31Z"/>
    <path d="M149.41,223.54c6.57-1.45,7.82,8.76,2.32,9.97-6.31,1.39-7.88-8.75-2.32-9.97Z"/>
    <path d="M153.46,266.01c-3.85,3.42-10.17-1.66-6.89-6.64,3.65-5.55,11.91,2.17,6.89,6.64Z"/>
    <path d="M149.92,239.8c5.23-.76,7.25,8.51,1.9,9.56-6.87,1.36-8.01-8.68-1.9-9.56Z"/>
    <path d="M286.18,203.26c2.51-.16,5.53,2.13,5.78,4.72.27,2.82-2.94,6.91-6.11,6.07-6.76-1.8-4.5-10.48.34-10.79Z"/>
    <path class="cls-1" d="M113.81,68.95c27.06-4.21,22.09,37.97-.88,30.64-15.88-5.06-13.92-28.34.88-30.64ZM116.38,75.04c-11.63,1.17-10.31,19.74,2.35,18.16,10.57-1.33,9.52-19.35-2.35-18.16Z"/>
    <path class="cls-1" d="M178.4,68.95c24.86-4.6,24.89,33.46,2.49,31.36-17.31-1.62-18.71-28.36-2.49-31.36ZM176.68,77.14c-9.32,8.09,2.71,21.69,11.78,14.07,8.45-7.1-2.56-22.08-11.78-14.07Z"/>
    <path d="M116.38,75.04c11.87-1.19,12.92,16.83,2.35,18.16-12.66,1.59-13.98-16.98-2.35-18.16Z"/>
    <path d="M176.68,77.14c9.22-8.01,20.23,6.97,11.78,14.07-9.07,7.62-21.11-5.98-11.78-14.07Z"/>
  </g>
</svg>